PathFileType	4	(X/Y/Z)	 s03c0203.trc
DataRate	CameraRate	NumFrames	NumMarkers	Units	OrigDataRate	OrigDataStartFrame	OrigNumFrames
200	200	4	50	mm	200	1	2000
Frame#	Time	racr			lacr			c7			jug			rlel			rdr			llel			ldr			s2			lic			ric			lasi			rasi			rpsi			lpsi			rgt			lgt			rth1			rth2			rth3			rth4			rlfc			rmfc			rsh1			rsh2			rsh3			rsh4			rlmal			rcal			rtoe			rmt5			rmt1			lth1			lth2			lth4			lth3			llfc			lmfc			lsh1			lsh2			lsh3			lsh4			llmal			lcal			ltoe			lmt1			lmt5			SBIKE			LBIKE			RBIKE			
		X1	Y1	Z1	X2	Y2	Z2	X3	Y3	Z3	X4	Y4	Z4	X5	Y5	Z5	X6	Y6	Z6	X7	Y7	Z7	X8	Y8	Z8	X9	Y9	Z9	X10	Y10	Z10	X11	Y11	Z11	X12	Y12	Z12	X13	Y13	Z13	X14	Y14	Z14	X15	Y15	Z15	X16	Y16	Z16	X17	Y17	Z17	X18	Y18	Z18	X19	Y19	Z19	X20	Y20	Z20	X21	Y21	Z21	X22	Y22	Z22	X23	Y23	Z23	X24	Y24	Z24	X25	Y25	Z25	X26	Y26	Z26	X27	Y27	Z27	X28	Y28	Z28	X29	Y29	Z29	X30	Y30	Z30	X31	Y31	Z31	X32	Y32	Z32	X33	Y33	Z33	X34	Y34	Z34	X35	Y35	Z35	X36	Y36	Z36	X37	Y37	Z37	X38	Y38	Z38	X39	Y39	Z39	X40	Y40	Z40	X41	Y41	Z41	X42	Y42	Z42	X43	Y43	Z43	X44	Y44	Z44	X45	Y45	Z45	X46	Y46	Z46	X47	Y47	Z47	X48	Y48	Z48	X49	Y49	Z49	X50	Y50	Z50	
1	0.0050	459.293266	1441.687800	-58.947571	457.640377	1467.789383	-371.417094	376.705796	1520.884234	-206.460345	428.844530	1355.498661	-212.039616	513.636922	1175.984997	34.687565	737.080292	985.694069	-4.526822	525.933211	1204.010724	-445.548274	735.355281	981.121508	-421.989353	-116.978600	1210.235280	-242.694321	77.177941	1218.076509	-417.539131	48.714603	1233.074071	-46.910127	90.708607	1140.985437	-379.377063	64.024679	1171.356728	-90.468789	-87.591757	1258.853202	-196.800206	-75.587883	1255.291502	-279.707203	-13.845766	1153.956234	-33.329217	7.738776	1110.598962	-436.847660	111.011131	1068.989513	-12.363935	199.964772	1069.183524	-8.839416	275.867253	1027.745367	-8.890181	210.241358	1101.931863	-22.615954	397.758225	966.182939	-26.545310	409.300103	955.759397	-154.398359	338.085001	810.799459	-14.846845	325.562954	724.624690	-33.480828	268.278783	656.853389	-41.509166	351.828274	715.774779	-59.568668	209.002363	538.936578	-69.341015	144.982324	490.447485	-113.151875	454.141896	499.427545	-109.417525	335.789731	475.416893	-40.938571	361.747181	494.635347	-155.041897	77.853692	968.330574	-465.296826	137.693300	905.609737	-470.009649	169.618353	922.948062	-464.588868	159.686031	818.511473	-462.218770	235.856362	711.678449	-449.751960	247.131337	700.893542	-325.878882	146.888019	561.041730	-464.640940	135.670203	479.418509	-444.324954	79.761101	407.445158	-431.190709	165.490005	469.297280	-420.843105	22.049544	294.873383	-403.399432	-47.128044	259.112943	-353.116085	256.871234	203.158079	-357.454096	163.519657	214.499781	-314.419293	134.064952	198.491053	-427.919348	-217.631568	945.009340	-232.556500	-7.704234	83.254752	-436.270253	-13.980914	80.874589	-36.397599	
2	0.0100	459.340807	1441.711923	-58.895272	457.658495	1467.783277	-371.427093	376.716746	1520.887846	-206.464818	428.876794	1355.460098	-211.988775	513.661003	1176.003333	34.750825	737.079327	985.683292	-4.489782	525.903820	1203.991976	-445.560894	735.335384	981.120329	-421.994447	-116.974338	1210.235117	-242.710492	77.226242	1218.041283	-417.517226	48.759569	1233.050141	-46.928008	90.708607	1140.985437	-379.377063	64.055617	1171.356047	-90.505690	-87.556904	1258.848899	-196.830785	-75.570989	1255.267067	-279.734542	-13.838946	1153.946399	-33.358682	7.732098	1110.605911	-436.860546	111.014283	1068.958748	-12.378496	199.970291	1069.168528	-8.840381	275.846160	1027.735007	-8.893464	210.248780	1101.929897	-22.595861	397.756121	966.174881	-26.516102	409.291324	955.752953	-154.414495	338.085868	810.803451	-14.850042	325.553603	724.630331	-33.472428	268.285497	656.865239	-41.496766	351.833893	715.779725	-59.574525	208.980245	538.951722	-69.330765	144.969568	490.477184	-113.144891	454.105742	499.452089	-109.413402	335.784416	475.416349	-40.944921	361.732886	494.647476	-155.056256	77.866950	968.329210	-465.316387	137.702548	905.615573	-470.010660	169.632665	922.935054	-464.597778	159.709655	818.494654	-462.224262	235.869711	711.678430	-449.737754	247.142569	700.887168	-325.858611	146.889371	561.041536	-464.636172	135.698108	479.420417	-444.315828	79.778596	407.436359	-431.190092	165.486131	469.293294	-420.839050	22.066945	294.855844	-403.393349	-47.116189	259.100861	-353.129132	256.889177	203.137566	-357.455522	164.056134	215.013119	-314.623318	134.084125	198.487781	-427.916554	-217.628184	945.009911	-232.554220	-7.705410	83.242634	-436.276537	-13.957962	80.858101	-36.410156	
3	0.0150	459.347040	1441.739651	-58.829560	457.658495	1467.783277	-371.427093	379.704152	1521.590602	-208.592372	428.921173	1355.451320	-211.973302	513.690109	1176.004200	34.794561	737.072021	985.659249	-4.456655	525.891539	1203.996217	-445.593412	735.320289	981.099350	-422.002889	-116.955350	1210.239574	-242.712897	77.283001	1218.018228	-417.508385	48.802250	1233.020985	-46.930038	90.686673	1140.929041	-379.315602	64.084101	1171.343322	-90.538901	-87.559465	1258.836404	-196.826348	-75.575988	1255.264521	-279.731052	-13.829030	1153.932392	-33.361708	7.731939	1110.594974	-436.861972	110.999960	1068.953701	-12.361779	199.965290	1069.158904	-8.819268	275.857868	1027.737608	-8.874913	210.265579	1101.917434	-22.581550	397.748559	966.177875	-26.523803	409.279878	955.757044	-154.395644	338.081038	810.809785	-14.843496	325.539044	724.627462	-33.468652	268.262965	656.876144	-41.500222	351.815156	715.783749	-59.573266	208.982046	538.969351	-69.341273	144.967508	490.466224	-113.170525	454.088112	499.480562	-109.406344	335.766468	475.416432	-40.946743	361.718094	494.665794	-155.062714	77.885169	968.325230	-465.297386	137.711362	905.592833	-470.005924	169.646765	922.925976	-464.573058	159.711740	818.479560	-462.207157	235.855044	711.663012	-449.730878	247.151543	700.863532	-325.855835	146.885131	561.023442	-464.629833	135.697335	479.402703	-444.321797	79.791259	407.421379	-431.178103	165.493041	469.285456	-420.853840	22.079794	294.833435	-403.397079	-47.103901	259.077263	-353.132378	256.900815	203.133562	-357.466565	164.093917	215.011334	-314.642218	134.093948	198.473308	-427.928733	-217.631728	945.016817	-232.568024	-7.714529	83.240239	-436.287759	-13.958133	80.868406	-36.415088	
4	0.0200	459.384239	1441.759480	-58.795190	457.683642	1467.779044	-371.451268	381.186098	1521.532534	-210.348905	426.493428	1355.411655	-213.377677	513.703425	1176.010215	34.840496	737.088148	985.640058	-4.409519	526.865212	1203.145738	-442.992245	735.300793	981.096480	-421.996360	-116.964229	1210.235816	-242.708908	77.143344	1217.199651	-415.568362	49.045313	1232.946929	-46.927208	88.429747	1138.849373	-374.916383	64.084682	1171.318444	-90.538423	-87.561561	1258.832292	-196.822321	-75.567199	1255.276126	-279.722390	-13.831077	1153.919940	-33.361575	7.747713	1110.595003	-436.852373	110.921466	1068.901153	-12.364580	199.960827	1069.164294	-8.820137	276.010719	1027.677930	-8.726375	209.471313	1102.306401	-23.326744	397.739829	966.172818	-26.505536	409.303929	955.758123	-154.390181	338.066714	810.801858	-14.805251	325.534829	724.616870	-33.450533	268.255193	656.877274	-41.500181	353.250257	716.719878	-59.143038	208.936393	538.977584	-69.342795	144.929709	490.494005	-113.145005	454.049779	499.515714	-109.409577	335.743713	475.452602	-40.953611	361.687319	494.682312	-155.043930	77.899028	968.313967	-465.286158	138.223486	904.755062	-468.286837	170.078209	922.397267	-463.477944	159.826208	818.415129	-462.249188	236.426646	710.945494	-448.348981	247.146140	700.837555	-325.828460	147.493662	560.113425	-463.081567	135.459460	477.232928	-441.230930	79.785690	407.400361	-431.187978	165.838353	468.344797	-419.046212	21.705611	295.584959	-404.506012	-47.092385	259.041823	-353.127379	256.935121	203.118341	-357.464971	164.263310	213.124947	-311.995711	134.740926	196.851811	-425.753859	-217.698589	945.028010	-232.983144	-7.711213	83.246102	-436.287277	-13.956660	80.860672	-36.411850	
